<?xml version="1.0" encoding="UTF-8"?><svg id="Layer_1" xmlns="http://www.w3.org/2000/svg" width="21.36mm" height="21.94mm" viewBox="0 0 60.53 62.18"><path class="fill-path" d="M41.28,20.63c0,1.89-.25,3.72-.75,5.48-.48,1.74-1.17,3.39-2.06,4.93-.89,1.52-1.97,2.91-3.23,4.18s-2.65,2.35-4.18,3.26c-1.52.89-3.16,1.58-4.93,2.06-1.76.5-3.59.75-5.48.75s-3.72-.25-5.48-.75c-1.74-.48-3.39-1.17-4.93-2.06-1.52-.91-2.91-1.99-4.18-3.26-1.26-1.26-2.35-2.65-3.26-4.18-.89-1.54-1.59-3.18-2.09-4.93-.48-1.76-.72-3.59-.72-5.48s.24-3.72.72-5.48c.5-1.76,1.2-3.41,2.09-4.93.91-1.52,1.99-2.91,3.26-4.18,1.26-1.26,2.65-2.34,4.18-3.23,1.54-.89,3.18-1.58,4.93-2.06,1.76-.5,3.59-.75,5.48-.75s3.72.25,5.48.75c1.76.48,3.41,1.17,4.93,2.06,1.52.89,2.91,1.97,4.18,3.23,1.26,1.26,2.34,2.65,3.23,4.18.89,1.52,1.58,3.16,2.06,4.93.5,1.76.75,3.59.75,5.48ZM33.35,20.63c0-1.74-.33-3.39-1-4.93-.67-1.56-1.58-2.9-2.73-4.04-1.13-1.15-2.48-2.06-4.04-2.73-1.54-.67-3.18-1-4.93-1s-3.41.33-4.95,1c-1.54.67-2.89,1.58-4.04,2.73-1.15,1.13-2.06,2.48-2.73,4.04-.67,1.54-1,3.18-1,4.93s.33,3.39,1,4.93c.67,1.52,1.58,2.86,2.73,4.01,1.15,1.15,2.5,2.06,4.04,2.73,1.54.67,3.19,1,4.95,1s3.39-.33,4.93-1c1.56-.67,2.9-1.58,4.04-2.73,1.15-1.15,2.06-2.49,2.73-4.01.67-1.54,1-3.18,1-4.93Z"/><path class="fill-path" d="M60.53,57.28c-1.86,1.58-3.92,2.79-6.21,3.65-2.28.84-4.66,1.25-7.13,1.25-1.89,0-3.72-.25-5.48-.75-1.74-.48-3.38-1.17-4.9-2.06-1.52-.91-2.91-1.99-4.18-3.23-1.26-1.26-2.34-2.65-3.23-4.18-.89-1.54-1.59-3.19-2.09-4.95-.48-1.76-.72-3.59-.72-5.48s.24-3.71.72-5.46c.5-1.74,1.2-3.38,2.09-4.9.89-1.54,1.97-2.93,3.23-4.18,1.26-1.26,2.65-2.34,4.18-3.23,1.52-.89,3.15-1.58,4.9-2.06,1.76-.5,3.59-.75,5.48-.75,2.47,0,4.84.43,7.13,1.28,2.28.83,4.35,2.04,6.21,3.62l-4.18,6.96c-1.21-1.22-2.6-2.18-4.18-2.87-1.58-.71-3.24-1.06-4.98-1.06s-3.39.33-4.93,1c-1.52.67-2.86,1.58-4.01,2.73-1.15,1.13-2.06,2.47-2.73,4.01-.67,1.52-1,3.15-1,4.9s.33,3.41,1,4.95c.67,1.54,1.58,2.89,2.73,4.04,1.15,1.15,2.49,2.06,4.01,2.73,1.54.67,3.18,1,4.93,1,1,0,1.98-.12,2.92-.36.95-.24,1.85-.58,2.7-1v-11.36h7.71v15.75Z"/></svg>