<?xml version="1.0" encoding="UTF-8"?><svg id="Layer_1" xmlns="http://www.w3.org/2000/svg" width="94.46mm" height="84.63mm" viewBox="0 0 267.75 239.91"><defs><style>.cls-1{fill:#fff;}</style></defs><path class="cls-1" d="M36.39,239.86c11.7-11.59,23.1-23.67,33.3-36.84,16.07-20.78,28.9-43.35,37.7-68.14,7.11-20.04,11.28-40.72,12.3-61.95.38-7.8.65-15.8-.64-23.44C113.7,17.83,84.65-3.58,52.75.5,29.98,3.41,14.01,15.94,4.74,36.82-.72,49.13-.99,62.07,1.54,75.09c2.38,12.28,8.4,22.31,18.89,29.44,8.78,5.97,18.78,8.76,28.89,11.33,5.37,1.37,10.76,2.75,15.95,4.67,4.32,1.6,5.49,3.7,4.9,8.24-.92,6.97-1.64,14.05-3.54,20.78-8.29,29.27-22.9,55.22-42.02,78.6,3.77,3.74,7.7,7.65,11.78,11.7ZM183.97,239.91c.22-.21.57-.5.9-.82,11.54-11.42,22.65-23.24,32.59-36.12,16.98-21.99,30.33-45.93,39.1-72.35,6.33-19.05,9.98-38.63,10.92-58.66.34-7.25.54-14.68-.57-21.81C261.92,18.28,232.62-3.58,200.45.49c-21.61,2.73-37.25,14.33-46.83,33.8-7.02,14.27-7.3,29.32-3.46,44.48,3.46,13.65,11.93,23.35,24.51,29.56,7.2,3.56,14.89,5.6,22.63,7.58,5.36,1.37,10.7,2.9,15.94,4.7,3.46,1.19,5.26,3.9,4.75,7.72-.77,5.73-1.2,11.56-2.55,17.16-5.89,24.44-17.34,46.36-31.27,67.06-3.69,5.49-7.93,10.61-11.79,15.72,3.79,3.8,7.65,7.67,11.6,11.64Z"/><path d="M36.39,239.86c-4.08-4.05-8.01-7.96-11.78-11.7,19.12-23.38,33.73-49.33,42.02-78.6,1.9-6.72,2.62-13.81,3.54-20.78.6-4.54-.57-6.64-4.9-8.24-5.19-1.91-10.58-3.3-15.95-4.67-10.11-2.58-20.11-5.36-28.89-11.33-10.49-7.13-16.51-17.17-18.89-29.44-2.53-13.03-2.26-25.96,3.2-38.27C14.01,15.94,29.98,3.41,52.75.5c31.9-4.07,60.95,17.34,66.29,48.99,1.29,7.64,1.02,15.64.64,23.44-1.03,21.23-5.19,41.91-12.3,61.95-8.79,24.79-21.62,47.36-37.7,68.14-10.19,13.18-21.59,25.25-33.3,36.84Z"/><path d="M183.97,239.91c-3.95-3.96-7.81-7.83-11.6-11.64,3.86-5.11,8.09-10.24,11.79-15.72,13.93-20.7,25.38-42.62,31.27-67.06,1.35-5.6,1.77-11.42,2.55-17.16.51-3.82-1.29-6.53-4.75-7.72-5.24-1.8-10.58-3.32-15.94-4.7-7.73-1.98-15.42-4.03-22.63-7.58-12.58-6.21-21.05-15.91-24.51-29.56-3.84-15.16-3.56-30.2,3.46-44.48C163.19,14.81,178.84,3.22,200.45.49c32.18-4.07,61.48,17.79,66.46,49.67,1.11,7.13.91,14.56.57,21.81-.95,20.03-4.6,39.61-10.92,58.66-8.77,26.42-22.12,50.36-39.1,72.35-9.94,12.87-21.04,24.69-32.59,36.12-.32.32-.67.62-.9.82Z"/></svg>